# xmcd
#
# Track frame offsets: 
#        150
#        18850
#        41187
#        63692
#        82996
#        100511
#        117399
#        134623
#        157111
#        176002
#        198699
#
# Disc length: 3098 seconds
#
# Revision: 0
# Processed by: cddbd v1.5.2PL0 Copyright (c) Steve Scherf et al.
# Submitted via: ExactAudioCopy v0.99pb3
#
DISCID=9a0c180b
DTITLE=Parallel Lions - Holding Patterns
DYEAR=2009
DGENRE=Bird Music
TTITLE0=Taste Of Your Heart
TTITLE1=Separated
TTITLE2=Telephone Line
TTITLE3=Ever
TTITLE4=For You
TTITLE5=A Song With An Ending
TTITLE6=Hereafter
TTITLE7=Living On The Edges Of The World
TTITLE8=Season Of Debt
TTITLE9=Black Clouds
TTITLE10=Woven In Time
EXTD=
EXTT0=
EXTT1=
EXTT2=
EXTT3=
EXTT4=
EXTT5=
EXTT6=
EXTT7=
EXTT8=
EXTT9=
EXTT10=
PLAYORDER=
